<svg width="66" height="66" viewBox="0 0 66 66" fill="none" xmlns="http://www.w3.org/2000/svg">
<path d="M33 0.5C15.0503 0.5 0.5 15.0509 0.5 33C0.5 37.6605 1.57252 42.1507 3.44452 46.3049C0.779519 60.0686 0.600769 61.6406 0.600769 61.6406C0.165269 63.8948 2.10226 65.8253 4.36101 65.3986C4.36101 65.3986 5.79427 65.0837 19.6945 62.4531C23.848 64.3248 28.3395 65.5 33 65.5C50.9497 65.5 65.5 50.9491 65.5 33C65.5 15.0509 50.9497 0.5 33 0.5ZM23.861 16.75C26.9062 16.75 30.9688 20.8125 30.9688 23.8594C30.9688 24.875 28.8433 28.487 28.9375 28.9375C29.6135 32.1641 33.8255 36.4781 37.0625 37.0625C37.4492 37.1324 41.125 35.0312 42.139 35.0312C45.1875 35.0312 49.25 39.0938 49.25 42.1406C49.25 45.1875 45.1875 49.25 42.139 49.25C38.213 49.25 30.9688 45.1875 26.9062 41.125C26.4675 40.6879 25.3137 39.5309 24.875 39.0938C20.8125 35.0312 16.75 27.786 16.75 23.8594C16.75 20.8125 20.8125 16.75 23.861 16.75Z" fill="#FFB86A"/>
</svg>
