<svg width="76" height="31" viewBox="0 0 76 31" fill="none" xmlns="http://www.w3.org/2000/svg">
<path d="M19.5835 0.5C12.6197 0.5 6.9797 5.31875 5.28845 11.75H4.5835C2.5135 11.75 0.833496 13.43 0.833496 15.5C0.833496 17.57 2.5135 19.25 4.5835 19.25H5.28845C6.9797 25.6812 12.6197 30.5 19.5835 30.5C27.8672 30.5 34.5835 23.7838 34.5835 15.5C34.5835 13.43 36.2635 11.75 38.3335 11.75C40.4035 11.75 42.0835 13.43 42.0835 15.5C42.0835 23.7838 48.7997 30.5 57.0835 30.5C64.0472 30.5 69.6873 25.6812 71.3785 19.25H72.0835C74.1535 19.25 75.8335 17.57 75.8335 15.5C75.8335 13.43 74.1535 11.75 72.0835 11.75H71.3785C69.6873 5.31875 64.0472 0.5 57.0835 0.5C52.0885 0.5 47.5284 3.24501 45.0984 6.52251C43.4672 5.21001 40.9322 4.25 38.3335 4.25C35.7197 4.25 33.271 5.16124 31.5798 6.55249C29.101 3.14749 24.5785 0.5 19.5835 0.5ZM19.5835 6.125C20.6185 6.125 21.4585 6.965 21.4585 8C21.4585 9.035 20.6185 9.875 19.5835 9.875C16.4785 9.875 13.9585 12.395 13.9585 15.5C13.9585 16.535 13.1185 17.375 12.0835 17.375C11.0485 17.375 10.2085 16.535 10.2085 15.5C10.2085 10.3212 14.4047 6.125 19.5835 6.125ZM57.0835 6.125C58.1185 6.125 58.9585 6.965 58.9585 8C58.9585 9.035 58.1185 9.875 57.0835 9.875C53.9785 9.875 51.4585 12.395 51.4585 15.5C51.4585 16.535 50.6185 17.375 49.5835 17.375C48.5485 17.375 47.7085 16.535 47.7085 15.5C47.7085 10.3212 51.9047 6.125 57.0835 6.125Z" fill="#FFB86A"/>
</svg>
