<svg width="66" height="66" viewBox="0 0 66 66" fill="none" xmlns="http://www.w3.org/2000/svg">
<g clip-path="url(#clip0_97_488)">
<path d="M38.0832 5.91667C38.0832 7.35326 37.5125 8.73101 36.4967 9.74683C35.4808 10.7627 34.1031 11.3333 32.6665 11.3333C31.2299 11.3333 29.8522 10.7627 28.8363 9.74683C27.8205 8.73101 27.2498 7.35326 27.2498 5.91667C27.2498 4.48008 27.8205 3.10233 28.8363 2.0865C29.8522 1.07068 31.2299 0.5 32.6665 0.5C34.1031 0.5 35.4808 1.07068 36.4967 2.0865C37.5125 3.10233 38.0832 4.48008 38.0832 5.91667ZM53.7915 51.0375C50.4656 52.3256 46.7648 52.2429 43.4998 50.8073C41.7913 51.5529 39.9473 51.9378 38.0832 51.9378C36.219 51.9378 34.375 51.5529 32.6665 50.8073C30.958 51.5529 29.114 51.9378 27.2498 51.9378C25.3857 51.9378 23.5417 51.5529 21.8332 50.8073C18.5727 52.2418 14.8764 52.3246 11.555 51.0375C10.1067 51.6395 8.55455 51.9523 6.98609 51.9583L8.20484 58.8023C8.53987 60.6798 9.52469 62.3797 10.9869 63.6042C12.449 64.8287 14.2954 65.4998 16.2025 65.5H49.1332C51.0411 65.4995 52.8881 64.8277 54.3504 63.6021C55.8126 62.3765 56.797 60.6754 57.1309 58.7969L58.3469 51.9583C56.783 51.9505 55.2356 51.6378 53.7915 51.0375ZM41.1707 12.5467C40.1567 13.8316 38.8647 14.87 37.3918 15.5839C35.9189 16.2979 34.3033 16.6688 32.6665 16.6688C31.0297 16.6688 29.4141 16.2979 27.9412 15.5839C26.4683 14.87 25.1763 13.8316 24.1623 12.5467C11.1948 16.1623 0.166504 27.4723 0.166504 39.7708C0.18305 41.0707 0.572095 42.3385 1.28749 43.4239C2.00288 44.5093 3.01459 45.3667 4.20261 45.8944C5.39063 46.4222 6.70508 46.598 7.99005 46.4012C9.27501 46.2044 10.4766 45.6431 11.4521 44.784C12.9455 45.9609 14.8073 46.5709 16.7076 46.506C18.6078 46.441 20.4237 45.7053 21.8332 44.4292C23.3201 45.7671 25.2496 46.5074 27.2498 46.5074C29.2501 46.5074 31.1796 45.7671 32.6665 44.4292C34.1534 45.7671 36.0829 46.5074 38.0832 46.5074C40.0834 46.5074 42.0129 45.7671 43.4998 44.4292C44.9093 45.7053 46.7252 46.441 48.6254 46.506C50.5257 46.5709 52.3875 45.9609 53.8809 44.784C54.8565 45.6431 56.058 46.2044 57.343 46.4012C58.6279 46.598 59.9424 46.4222 61.1304 45.8944C62.3184 45.3667 63.3301 44.5093 64.0455 43.4239C64.7609 42.3385 65.15 41.0707 65.1665 39.7708C65.1665 27.4723 54.1382 16.1623 41.1707 12.5467Z" fill="#FFB86A"/>
</g>
<defs>
<clipPath id="clip0_97_488">
<rect width="65" height="65" fill="white" transform="translate(0.166504 0.5)"/>
</clipPath>
</defs>
</svg>
