<svg width="63" height="63" viewBox="0 0 63 63" fill="none" xmlns="http://www.w3.org/2000/svg">
<path d="M31.75 0.5C14.4906 0.5 0.5 14.4906 0.5 31.75C0.5 49.0094 14.4906 63 31.75 63C49.0094 63 63 49.0094 63 31.75C63 14.4906 49.0094 0.5 31.75 0.5ZM43.275 16.3188C45.7156 15.5063 47.9938 17.7844 47.1813 20.225L40.9313 38.975C40.6188 39.9094 39.9094 40.6187 38.975 40.9312C36.6312 41.7125 22.5719 46.3968 20.225 47.1812C17.7844 47.9937 15.5062 45.7156 16.3187 43.275L22.5687 24.525C22.8812 23.5906 23.5906 22.8813 24.525 22.5688L43.275 16.3188ZM31.75 28.625C30.025 28.625 28.625 30.025 28.625 31.75C28.625 33.475 30.025 34.875 31.75 34.875C33.475 34.875 34.875 33.475 34.875 31.75C34.875 30.025 33.475 28.625 31.75 28.625Z" fill="#FFB86A"/>
</svg>
