<svg width="65" height="64" viewBox="0 0 65 64" fill="none" xmlns="http://www.w3.org/2000/svg">
<path d="M14.9528 0.0922852C7.12925 0.0922852 0.786133 6.43541 0.786133 14.259V49.6756C0.786133 57.4992 7.12925 63.8423 14.9528 63.8423H50.3694C58.1929 63.8423 64.536 57.4992 64.536 49.6756V14.259C64.536 6.43541 58.1929 0.0922852 50.3694 0.0922852H14.9528ZM46.8277 10.7173C50.7413 10.7173 53.911 13.8871 53.911 17.8006C53.911 21.7142 50.7413 24.884 46.8277 24.884C42.9142 24.884 39.7444 21.7142 39.7444 17.8006C39.7444 13.8871 42.9142 10.7173 46.8277 10.7173ZM20.2653 28.4256C22.3265 28.4292 25.4574 31.6379 28.4536 37.17C29.6436 39.3587 30.7096 41.7706 31.6659 44.1435C32.2396 45.5602 32.6824 46.644 32.8807 47.239C33.8476 50.1325 37.7717 50.5433 39.3017 47.9048C39.454 47.6427 39.7302 47.1398 40.1871 46.4669C40.9521 45.3335 41.8233 44.1861 42.7335 43.1448C45.0073 40.5381 47.2031 39.0506 48.5986 39.0506C50.0117 39.086 52.1934 40.57 54.4636 43.1448C55.3844 44.1896 56.2344 45.3335 57.01 46.4669C57.2544 46.821 57.2898 46.9875 57.4527 47.239V49.6756C57.4527 53.5892 54.2829 56.759 50.3694 56.759H14.9528C11.0392 56.759 7.86945 53.5892 7.86945 49.6756V46.6865C8.09258 46.0561 8.3901 45.3087 8.86468 44.1435C9.83156 41.7706 10.8798 39.3623 12.0769 37.17C15.0979 31.6273 18.2076 28.4221 20.2653 28.4256Z" fill="#FFB86A"/>
</svg>
