<svg width="63" height="64" viewBox="0 0 63 64" fill="none" xmlns="http://www.w3.org/2000/svg">
<path d="M31.3284 0.794189C27.2878 0.794189 22.7316 13.1379 22.1472 28.9192H40.5096C39.9252 13.141 35.369 0.794189 31.3284 0.794189ZM21.4659 2.35669C9.94401 6.19731 1.26904 16.7348 0.175293 28.9192H15.8972C16.2441 18.1723 18.1846 8.64105 21.4659 2.35669ZM41.1909 2.35669C44.4722 8.64105 46.4127 18.1723 46.7596 28.9192H62.3846C61.2534 16.591 52.8253 6.26606 41.1909 2.35669ZM0.272186 35.1691C1.39719 47.691 10.0909 57.9504 21.5628 61.7316C18.2846 55.4472 16.2441 45.916 15.8972 35.1691H0.272186ZM22.1472 35.1691C22.7316 50.9473 27.2878 63.2941 31.3284 63.2941C35.369 63.2941 39.9252 50.9504 40.5096 35.1691H22.1472ZM46.7596 35.1691C46.4127 45.916 44.3722 55.4472 41.094 61.7316C52.8784 57.7222 61.2346 47.2941 62.3846 35.1691H46.7596Z" fill="#FFB86A"/>
</svg>
