<svg width="51" height="72" viewBox="0 0 51 72" fill="none" xmlns="http://www.w3.org/2000/svg">
<path d="M25.8881 0.544224C24.7137 0.344838 23.4329 0.829467 22.5637 1.87465C5.50237 22.3451 0.5 32.886 0.5 46.6656C0.5 60.3814 11.6188 71.5002 25.3346 71.5002C39.0504 71.5002 50.1692 60.3814 50.1692 46.6656C50.1692 41.6065 49.0374 37.7358 46.5114 33.6949C45.4257 31.96 40.0189 24.8449 38.5288 22.6073C34.8639 17.1089 31.7064 10.9982 28.6624 2.87228C28.1834 1.59862 27.0624 0.74361 25.8881 0.544224ZM16.9086 29.1466C17.7742 28.873 18.7002 28.8092 19.5694 29.2601C21.3114 30.1613 22.021 32.2864 21.1198 34.0284C18.7925 38.5305 18.0297 42.9014 18.349 46.5557C18.5193 48.507 17.086 50.2631 15.1347 50.4334C13.1834 50.6072 11.4237 49.1704 11.2534 47.2191C10.8206 42.2664 11.8352 36.5473 14.8012 30.8105C15.2518 29.9413 16.0429 29.4233 16.9086 29.1466Z" fill="#FFB86A"/>
</svg>
