<svg width="64" height="64" viewBox="0 0 64 64" fill="none" xmlns="http://www.w3.org/2000/svg">
<path d="M10.667 0.500244C4.86749 0.500244 0.166992 5.20109 0.166992 11.0002V18.0002V49.5002C0.166992 57.2317 6.43549 63.5002 14.167 63.5002H49.167C56.8985 63.5002 63.167 57.2317 63.167 49.5002V18.0002C63.167 16.0672 61.599 14.5002 59.667 14.5002C59.667 14.5002 49.5065 14.5002 42.167 14.5002C39.5245 14.5002 38.674 13.6431 36.588 9.46899C33.4275 3.14309 30.7745 0.500244 24.667 0.500244H10.667ZM10.667 7.50024H24.667C27.3095 7.50024 28.16 8.35739 30.246 12.5315C30.701 13.4453 30.876 13.7428 31.324 14.5062C19.263 14.5062 10.6145 14.5002 7.16699 14.5002V11.0002C7.16699 9.06719 8.73499 7.50024 10.667 7.50024Z" fill="#FFB86A"/>
</svg>
