<svg width="64" height="57" viewBox="0 0 64 57" fill="none" xmlns="http://www.w3.org/2000/svg">
<path d="M13.333 0.500244C6.42988 0.500244 0.833008 6.09395 0.833008 12.9939C0.833008 16.7752 2.46109 20.1222 5.11734 22.4128C2.46109 24.7034 0.833008 27.9503 0.833008 31.7315V44.2252C0.833008 51.1221 6.42988 56.7502 13.333 56.7502H35.2049C41.6986 56.7502 47.0955 51.8189 47.708 45.4908L57.958 55.8378C59.9268 57.8065 63.3299 56.3752 63.3299 53.5939V22.3626C63.3299 20.972 62.4642 19.8847 61.3767 19.4347C60.2892 18.9847 58.9424 19.1345 57.958 20.1158C56.6518 21.422 51.8798 26.3908 47.683 30.5877C47.2861 26.5127 45.033 23.022 41.6736 21.0439C43.5643 18.8564 44.5799 16.1096 44.5799 12.9939C44.5799 6.09395 38.983 0.500244 32.0799 0.500244C28.2986 0.500244 24.9986 2.23784 22.708 4.89096C20.4143 2.23784 17.1143 0.500244 13.333 0.500244ZM13.333 6.74719C16.783 6.74719 19.583 9.54395 19.583 12.9939C19.583 16.4408 16.783 19.2376 13.333 19.2376C9.87988 19.2376 7.08301 16.4439 7.08301 12.9939C7.08301 9.54395 9.87988 6.74719 13.333 6.74719ZM32.0799 6.74719C35.533 6.74719 38.3299 9.54395 38.3299 12.9939C38.3299 16.4408 35.533 19.2376 32.0799 19.2376C28.6299 19.2376 25.833 16.4439 25.833 12.9939C25.833 9.54395 28.6299 6.74719 32.0799 6.74719Z" fill="#FFB86A"/>
</svg>
