<svg width="25" height="25" viewBox="0 0 25 25" fill="none" xmlns="http://www.w3.org/2000/svg">
<path d="M8.66675 5.8335L8.88821 4.5047C9.04894 3.54032 9.88332 2.8335 10.861 2.8335L14.4725 2.8335C15.4502 2.8335 16.2846 3.54032 16.4453 4.5047L16.6667 5.8335" stroke="#99A1AF" stroke-width="2" stroke-linecap="round"/>
<path d="M8.6665 5.8335H4.6665C3.56193 5.8335 2.6665 6.72893 2.6665 7.8335V19.8335C2.6665 20.9381 3.56193 21.8335 4.6665 21.8335H20.6665C21.7711 21.8335 22.6665 20.9381 22.6665 19.8335V7.8335C22.6665 6.72893 21.7711 5.8335 20.6665 5.8335H16.6665" stroke="#99A1AF" stroke-width="2" stroke-linecap="round"/>
<path d="M16.8771 13.917C16.8771 11.5852 14.992 9.69482 12.6666 9.69482C10.3412 9.69482 8.45605 11.5852 8.45605 13.917C8.45605 16.2489 10.3412 18.1393 12.6666 18.1393C14.992 18.1393 16.8771 16.2489 16.8771 13.917Z" stroke="#99A1AF" stroke-width="2"/>
</svg>
