<svg width="241" height="101" viewBox="0 0 241 101" fill="none" xmlns="http://www.w3.org/2000/svg">
<g filter="url(#filter0_d_105_920)">
<path d="M41 7C26.0883 7 14 19.0883 14 34C14 48.9117 26.0883 61 41 61H52.0322C52.1464 68.1803 50.5616 77.0064 44.0605 80.5C53.3838 78.4124 67.6159 71.9311 74.459 61H200C214.912 61 227 48.9117 227 34C227 19.0883 214.912 7 200 7H41Z" fill="white"/>
</g>
<path d="M72.8858 33.2155H69.7449V44.0387H67.1344V22.9061H69.7449V31.0773H72.8858V33.2155ZM53.8913 24.953H56.4852V36.6464C59.6012 36.6077 62.6095 36.2928 65.5101 35.7017L65.7919 37.8895C64.1123 38.2265 62.4383 38.4641 60.7698 38.6022C59.1068 38.7403 57.4079 38.8066 55.6731 38.8011H53.8913V24.953ZM93.0945 34.4669H73.7271V32.511H93.0945V34.4669ZM75.9812 35.7348H90.7409V40.5663H78.6V42.0414H91.3873V43.8481H76.0061V38.8757H88.1552V37.5746H75.9812V35.7348ZM76.1304 23.3785H90.6994V28.1519H78.7657V29.5193H91.0641V31.3177H76.1801V26.4613H88.0972V25.1685H76.1304V23.3785ZM117.006 29.5442H102.379V23.1878H104.948V27.4558H117.006V29.5442ZM99.8766 30.9862H119.244V33.0912H110.791V34.9392H116.866V40.2182H104.824V41.8757H117.562V43.8978H102.197V38.3785H114.288V36.9033H102.164V34.9392H108.238V33.0912H99.8766V30.9862ZM138.234 44.1215H135.64V32.8425H131.994V30.7044H135.64V22.9061H138.234V44.1215ZM121.204 24.7459H130.784V32.5028H123.856V36.9613C125.596 36.9503 127.118 36.9033 128.422 36.8204C129.732 36.732 131.052 36.5691 132.384 36.3315L132.599 38.4696C131.113 38.7293 129.632 38.9061 128.157 39C126.687 39.0884 124.955 39.1354 122.961 39.1409H121.27V30.4061H128.232V26.8591H121.204V24.7459ZM144.752 27.4558H150.272V24.6133H152.874V34.2845H148.838V37.6823C150.75 37.5994 152.454 37.4558 153.951 37.2514L154.134 39.1657C152.764 39.4033 151.333 39.5801 149.841 39.6961C148.355 39.8122 146.96 39.8867 145.656 39.9199C144.357 39.953 142.877 39.9724 141.214 39.9779L140.841 37.8232H141.752C143.725 37.8122 145.217 37.7956 146.228 37.7735V34.2845H142.175V24.6133H144.752V27.4558ZM150.272 32.2127V29.4365H144.752V32.2127H150.272ZM155.153 22.9061H157.755V31.5083H160.822V33.6878H157.755V44.0718H155.153V22.9061ZM181.039 36.8867H176.315V44.0718H173.679V36.8867H168.972V44.0718H166.304V36.8867H161.671V34.7735H181.039V36.8867ZM163.702 28.3923C163.702 27.442 164.019 26.6105 164.655 25.8978C165.29 25.1851 166.182 24.6354 167.331 24.2486C168.486 23.8564 169.809 23.6602 171.301 23.6602C172.798 23.6602 174.124 23.8564 175.279 24.2486C176.434 24.6354 177.331 25.1851 177.972 25.8978C178.613 26.6105 178.934 27.442 178.934 28.3923C178.934 29.326 178.613 30.1436 177.972 30.8453C177.331 31.5414 176.434 32.0773 175.279 32.453C174.124 32.8287 172.798 33.0166 171.301 33.0166C169.804 33.0166 168.481 32.8287 167.331 32.453C166.182 32.0773 165.29 31.5414 164.655 30.8453C164.019 30.1436 163.702 29.326 163.702 28.3923ZM166.387 28.3923C166.381 28.9227 166.577 29.3812 166.975 29.768C167.378 30.1547 167.95 30.4503 168.69 30.6547C169.436 30.8536 170.306 30.953 171.301 30.953C172.301 30.953 173.171 30.8536 173.911 30.6547C174.657 30.4503 175.232 30.1547 175.635 29.768C176.044 29.3812 176.248 28.9227 176.248 28.3923C176.248 27.8453 176.044 27.3729 175.635 26.9751C175.232 26.5773 174.657 26.2762 173.911 26.0718C173.171 25.8619 172.301 25.7569 171.301 25.7569C170.306 25.7569 169.436 25.8619 168.69 26.0718C167.95 26.2762 167.378 26.5773 166.975 26.9751C166.577 27.3729 166.381 27.8453 166.387 28.3923ZM186.396 37.0193H183.744L183.471 25.0276H186.662L186.396 37.0193ZM183.255 40.3674C183.25 40.0414 183.327 39.7403 183.488 39.4641C183.653 39.1878 183.874 38.9696 184.151 38.8094C184.432 38.6492 184.739 38.5691 185.07 38.5691C185.391 38.5691 185.689 38.6492 185.965 38.8094C186.247 38.9696 186.471 39.1878 186.637 39.4641C186.802 39.7403 186.885 40.0414 186.885 40.3674C186.885 40.6934 186.802 40.9972 186.637 41.279C186.471 41.5552 186.247 41.7762 185.965 41.942C185.689 42.1022 185.391 42.1823 185.07 42.1823C184.739 42.1823 184.432 42.1022 184.151 41.942C183.874 41.7762 183.653 41.5552 183.488 41.279C183.327 40.9972 183.25 40.6934 183.255 40.3674Z" fill="#FF6900"/>
<defs>
<filter id="filter0_d_105_920" x="0.700001" y="0.700001" width="239.6" height="100.1" filterUnits="userSpaceOnUse" color-interpolation-filters="sRGB">
<feFlood flood-opacity="0" result="BackgroundImageFix"/>
<feColorMatrix in="SourceAlpha" type="matrix" values="0 0 0 0 0 0 0 0 0 0 0 0 0 0 0 0 0 0 127 0" result="hardAlpha"/>
<feMorphology radius="4" operator="erode" in="SourceAlpha" result="effect1_dropShadow_105_920"/>
<feOffset dy="7"/>
<feGaussianBlur stdDeviation="8.65"/>
<feComposite in2="hardAlpha" operator="out"/>
<feColorMatrix type="matrix" values="0 0 0 0 0.0627451 0 0 0 0 0.0941176 0 0 0 0 0.156863 0 0 0 0.15 0"/>
<feBlend mode="normal" in2="BackgroundImageFix" result="effect1_dropShadow_105_920"/>
<feBlend mode="normal" in="SourceGraphic" in2="effect1_dropShadow_105_920" result="shape"/>
</filter>
</defs>
</svg>
