<svg width="454" height="133" viewBox="0 0 454 133" fill="none" xmlns="http://www.w3.org/2000/svg">
<path d="M70.17 79.98C68.41 79.98 66.98 74.9567 65.88 64.91L66.65 59.85L65.88 54.24H66.65L65.88 53.47C65.88 53.03 66.1367 51.8567 66.65 49.95L65.88 43.68V36.53L66.65 28.06L65.88 19.48V10.9C65.88 4.22666 67.31 0.889995 70.17 0.889995H70.83L72.26 5.29L73.8 23.77L93.6 21.57L94.37 22.34C94.8833 22.34 96.3133 22.0833 98.66 21.57C103.427 23.0367 105.81 24.21 105.81 25.09L105.04 25.86L105.81 26.63V28.72L101.52 32.24C84.36 30.48 75.78 28.8667 75.78 27.4L75.12 25.09C74.24 25.09 73.8 25.86 73.8 27.4L74.35 30.15L73.8 32.24L74.35 34.55H73.8C74.1667 35.87 75.5233 42.9467 77.87 55.78L77.32 57.76L77.87 58.53H78.64L77.87 62.82L78.64 72.06C76.3667 77.34 73.5433 79.98 70.17 79.98ZM25.62 33.01H23.97C21.99 28.2433 21 23.88 21 19.92V16.18L23.31 13.87H23.97C26.39 15.3367 28.7367 18.4167 31.01 23.11V29.27C31.01 30.0767 29.2133 31.3233 25.62 33.01ZM40.14 51.6H35.63L34.86 50.72L34.09 51.6H33.21L10.88 49.18L4.83 49.95L0.98 44.56C0.98 39.4267 2.52 36.86 5.6 36.86L9.45 37.63L10.22 36.86L14.07 37.63H16.38C34.86 38.8033 44.1 40.6367 44.1 43.13C42.8533 48.7767 41.5333 51.6 40.14 51.6ZM20.12 79.21H16.38C13.6667 79.21 11.8333 78.1833 10.88 76.13C10.88 71.51 17.0767 64.6167 29.47 55.45C33.5767 55.45 35.85 58.2 36.29 63.7C35.41 63.7 34.1267 66.5233 32.44 72.17C29.9467 74.6633 25.84 77.01 20.12 79.21ZM21.77 72.17C26.9033 71.51 29.47 69.0167 29.47 64.69L27.82 61.5C21.22 65.3133 17.92 68.65 17.92 71.51L18.69 72.17H21.77ZM34.64 133C31.7067 133 29.9467 130.067 29.36 124.2L30.35 121.78L29.8 121.34L30.79 117.05L30.35 115.62L33.21 109.35C38.27 105.097 41.8267 102.97 43.88 102.97V103.41L56.97 98.68V99.12C60.1233 97.7267 61.7 96.15 61.7 94.39V90.98C61.7 88.2667 59.1333 86.6167 54 86.03C52.9733 86.03 51.5433 86.2133 49.71 86.58L48.17 86.03L42.89 87.46C40.9833 86.7267 40.03 86.1033 40.03 85.59C40.5433 83.0233 46.4833 81.74 57.85 81.74L67.09 83.61L68.52 86.03L67.53 92.41L68.52 93.29L67.97 93.73L68.96 99.56C68.96 103.52 63.68 105.94 53.12 106.82L42.01 112.21C40.47 112.21 39.3333 115.107 38.6 120.9C41.7533 122.22 44.1733 122.88 45.86 122.88L48.61 122.22L49.27 122.88C49.5633 122.88 50.6267 122.66 52.46 122.22H55.43L57.41 124.2V125.19C57.41 125.777 56.9333 126.07 55.98 126.07L56.42 128.6L53.56 131.02C51.58 131.02 45.2733 131.68 34.64 133ZM165.678 112.32C162.965 109.46 160.838 100.623 159.298 85.81L159.958 85.15V84.49C158.785 81.3367 157.392 68.4667 155.778 45.88L156.328 45.33C156.328 44.7433 156.145 44.23 155.778 43.79L156.328 40.27L155.778 33.12H156.328L155.008 25.31C155.522 22.89 156.475 21.68 157.868 21.68C163.075 23.5867 165.678 29.5267 165.678 39.5L167.768 50.94H167.108L169.308 64.47H168.538L169.308 65.24V69.53L188.448 73.05L191.968 53.03C191.602 50.6833 191.418 48.8133 191.418 47.42C191.418 43.8267 192.115 41.92 193.508 41.7C195.268 41.7 197.138 43.0933 199.118 45.88C198.752 56.5867 198.055 62.5267 197.028 63.7L198.568 65.24L197.798 66.01L198.568 66.67V67.33C198.275 73.05 197.505 75.91 196.258 75.91L197.028 76.68V78.77L196.258 79.43L197.028 80.2V82.29L196.258 83.06L197.028 85.15L196.258 85.81L197.028 89.44V94.5C195.635 100.147 193.252 102.97 189.878 102.97H187.898C186.358 102.97 185.368 100.587 184.928 95.82H185.588L184.928 95.16C185.368 88.0467 185.588 83.7567 185.588 82.29L183.498 83.06L171.398 81.52C171.398 82.0333 171.875 84.93 172.828 90.21H172.058C173.452 95.49 174.148 100.917 174.148 106.49C173.268 109.863 171.912 111.55 170.078 111.55L165.678 112.32ZM114.968 98.68H112.988L109.688 95.38V93.4L110.458 92.85L109.138 89.55L109.688 83.17V76.02C110.935 67.8067 113.135 61.1333 116.288 56L123.988 56.55H131.688C137.482 56.55 140.708 62.16 141.368 73.38L144.668 85.15C140.488 89.77 135.098 92.08 128.498 92.08L114.968 98.68ZM116.838 89C127.618 84.4533 133.008 81.19 133.008 79.21C133.008 71.1433 130.662 66.6333 125.968 65.68C119.882 65.68 116.838 67.22 116.838 70.3L115.518 77.23L116.838 89ZM265.508 107.26L263.858 102.2H264.518L262.648 95.05H263.308L259.898 79.65H260.448L258.248 66.12H258.798L258.248 65.57V63.26L258.798 62.71L258.248 62.16V58.09C259.348 44.1567 260.484 35.3567 261.658 31.69V28.39L263.308 26.63H263.858C267.744 26.63 270.568 29.6367 272.328 35.65V36.31C271.374 36.31 270.641 39.83 270.128 46.87H270.678C271.191 46.21 276.251 45.66 285.858 45.22L286.408 45.77C286.848 45.77 288.021 45.5867 289.928 45.22C293.668 46.32 295.538 47.2367 295.538 47.97L294.878 48.63L295.538 49.18V50.83L292.128 53.69C278.561 52.2967 271.778 50.94 271.778 49.62L271.118 47.97H270.678L270.128 50.28L270.678 50.83C270.678 51.27 270.494 51.6733 270.128 52.04V52.48L270.678 53.03C270.678 53.47 270.494 54.24 270.128 55.34L271.118 64.91L270.678 65.57C270.678 73.7833 271.961 77.89 274.528 77.89L281.458 78.44C282.704 78.44 283.988 78.2567 285.308 77.89L287.068 78.44L289.928 77.89C289.928 78.4767 292.128 79.2467 296.528 80.2L297.188 80.64C297.188 82.62 296.051 84.71 293.778 86.91H292.128L291.468 86.36L290.918 86.91C289.818 86.91 284.024 85.6267 273.538 83.06C273.244 82.6933 272.841 82.51 272.328 82.51V83.06L274.528 88.89H273.978C275.151 92.1167 275.738 95.9667 275.738 100.44C275.738 104.987 272.328 107.26 265.508 107.26ZM210.398 81.3C207.318 81.3 204.604 78.5867 202.258 73.16C202.258 67.22 210.691 59.08 227.558 48.74H228.218C231.224 48.74 233.644 51.4533 235.478 56.88V61.83C232.911 68.43 228.071 74.37 220.958 79.65L210.398 81.3ZM215.348 74.04C219.968 74.04 223.194 70.52 225.028 63.48C225.028 62.8933 224.771 60.6933 224.258 56.88C217.584 60.6933 213.221 64.47 211.168 68.21V70.74C211.461 71.84 212.854 72.94 215.348 74.04ZM304.381 75.58L300.641 70.52C300.641 67.66 301.044 66.23 301.851 66.23C303.171 65.2033 304.601 64.2867 306.141 63.48L308.781 63.15L318.131 60.62L317.471 57.54V54.79L316.261 47.64L315.491 47.09V43.24C315.784 40.7467 316.444 39.5 317.471 39.5C321.797 39.5 324.364 41.48 325.171 45.44C326.344 47.42 327.114 48.85 327.481 49.73L329.131 54.24C329.351 56.44 330.267 57.54 331.881 57.54C342.441 55.4133 350.507 54.35 356.081 54.35L359.161 55.01V58.09L358.391 58.86L359.161 59.41V60.07L357.841 61.94L358.391 62.49V64.36C358.391 65.6067 357.621 66.23 356.081 66.23L352.891 65.68L339.251 68.21L338.701 67.44H338.041L311.201 73.71C311.201 74.59 308.927 75.2133 304.381 75.58ZM316.371 37.19H312.081C308.707 37.19 306.324 34.8067 304.931 30.04L305.151 27.95L304.381 27.18V20.25C304.381 10.35 305.077 5.4 306.471 5.4H307.901C309.807 5.4 311.201 11.0467 312.081 22.34L312.851 23C313.217 24.9067 315.087 25.86 318.461 25.86V26.63L335.401 25.09L338.261 30.04C338.261 32.24 335.364 34.0733 329.571 35.54C327.444 35.6867 324.071 36.1633 319.451 36.97L317.141 36.42L316.371 37.19ZM313.511 128.6C310.577 128.6 308.817 125.703 308.231 119.91L309.221 117.49L308.671 117.05L309.661 112.76L309.221 111.22L312.081 105.06C317.141 100.807 320.697 98.68 322.751 98.68V99.12L335.841 94.28V94.72C338.994 93.4 340.571 91.8233 340.571 89.99V86.58C339.031 84.3067 336.464 83.17 332.871 83.17H331.331L325.721 84.38C321.174 83.06 318.901 82.0333 318.901 81.3C319.414 78.66 325.354 77.34 336.721 77.34L345.961 79.32L347.391 81.74L346.401 88.12L347.391 89L346.841 89.44L347.831 95.16C347.831 99.12 342.551 101.577 331.991 102.53L320.881 107.81C319.341 107.81 318.204 110.743 317.471 116.61C320.624 117.857 323.044 118.48 324.731 118.48L327.481 117.93L328.141 118.48C328.434 118.48 329.497 118.297 331.331 117.93H334.301L336.281 119.91V120.9C336.281 121.487 335.804 121.78 334.851 121.78L335.291 124.31L332.431 126.73C330.451 126.73 324.144 127.353 313.511 128.6ZM430.263 115.18L428.613 110.67H429.053L427.623 106.82C427.623 106.38 427.806 106.05 428.173 105.83L425.533 86.8L425.753 86.36H426.413L424.763 78.66H425.533L423.443 66.56H423.883L423.443 66.34V64.25L423.883 63.81L423.443 63.15V55.01L423.883 53.36L423.443 51.05V42.25L423.003 39.28L423.883 37.52L423.443 36.86C424.983 21.8267 426.119 14.31 426.853 14.31H427.733C431.106 14.31 433.526 16.8767 434.993 22.01V22.78C434.406 23.2933 433.966 25.5667 433.673 29.6C433.966 29.8933 434.113 30.1867 434.113 30.48C433.526 31.7267 433.233 33.5233 433.233 35.87L433.673 40.49L433.233 41.7L433.673 43.24L433.233 47.2L434.113 54.02L433.673 54.57C433.673 54.9367 433.819 55.23 434.113 55.45C434.113 55.89 433.966 56.5867 433.673 57.54L434.663 65.68L434.113 66.34L435.763 78.88L434.993 79.54L437.963 100.44H437.523C438.403 103.153 438.843 106.087 438.843 109.24C438.843 113.2 435.983 115.18 430.263 115.18ZM450.723 73.16C448.963 71.9867 445.076 71.1433 439.063 70.63L435.323 66.89C435.983 65.2033 437.449 64.36 439.723 64.36H445.113L448.963 63.81C452.263 64.6167 453.913 65.4967 453.913 66.45C452.959 70.9233 451.896 73.16 450.723 73.16ZM368.773 102.64H367.123L364.813 100.33C365.839 93.07 370.313 78.22 378.233 55.78L377.573 55.01V53.36L378.233 52.59V51.93C367.673 49.8033 362.393 47.6767 362.393 45.55V43.9L365.473 40.71H367.123L367.893 41.48L368.773 40.71C376.179 41.5167 379.883 42.3233 379.883 43.13L380.653 42.36C388.573 43.24 392.533 45.88 392.533 50.28L383.733 75.69C387.546 75.69 394.989 81.7767 406.063 93.95L399.683 100.33H397.263C387.289 91.09 382.303 85.0033 382.303 82.07H381.423C379.003 84.1967 376.363 90.0267 373.503 99.56L368.773 102.64Z" fill="white"/>
</svg>
